<svg xmlns="http://www.w3.org/2000/svg" width="156" height="163"><path data-name="Forme 6" d="M28.33 76.31c0 3.7-2.3 5.87-6.29 5.87h-3.53V70.46h3.53c3.95 0 6.29 2.15 6.29 5.85zm-8.2-4.34v8.71h1.86c3.05 0 4.7-1.61 4.7-4.37 0-2.74-1.69-4.34-4.7-4.34h-1.86zm28.35-.01h-5.62v3.55h4.94v1.46h-4.94v3.71h5.75v1.5h-7.38V70.46h7.25v1.5zm21.84-.47l-.78 1.39a5.2 5.2 0 0 0-3.13-1.15c-1.27 0-2.23.58-2.23 1.84 0 1.03.59 1.48 2.57 1.9 2.85.62 3.9 1.54 3.9 3.35 0 2.12-1.61 3.57-4.17 3.57a6.358 6.358 0 0 1-4.29-1.5l.91-1.35a5.023 5.023 0 0 0 3.43 1.37c1.46 0 2.5-.67 2.5-1.93 0-1.03-.77-1.58-2.74-2-2.85-.62-3.73-1.56-3.73-3.32 0-2.06 1.56-3.41 3.87-3.41a6.607 6.607 0 0 1 3.89 1.24zM85.3 82.18h-1.63V70.46h1.63v11.72zm21.66-10.22l-1.03 1.18a4.166 4.166 0 0 0-3.16-1.39c-2.48 0-4.2 1.93-4.2 4.58a4.3 4.3 0 0 0 4.41 4.56 4.417 4.417 0 0 0 2.64-.83v-2.63h-2.98v-1.42h4.61v4.85a6.132 6.132 0 0 1-4.27 1.53 5.855 5.855 0 0 1-6.05-6.06 5.777 5.777 0 0 1 5.84-6.08 5.488 5.488 0 0 1 4.19 1.71zm19.96 6.36v-7.86h1.63v11.93h-.07l-7.31-8.09v7.88h-1.63V70.25h.07z" fill-rule="evenodd" fill="#75787b"/><path data-name="Forme 6" d="M21.43 159.73h-1.08v-6.89l-3.77 6.95h-.1l-3.77-6.95v6.89h-1.08v-10.62h.06l4.83 8.71 4.85-8.71h.06v10.62zm8.48-6.17l.03-.93h.95v7.1h-.95l-.03-.95a2.828 2.828 0 0 1-2.35 1.09c-1.93 0-3.24-1.55-3.24-3.69s1.31-3.69 3.24-3.69a2.875 2.875 0 0 1 2.35 1.07zm-4.55 2.62c0 1.64.96 2.76 2.36 2.76a2.379 2.379 0 0 0 2.13-1.28v-2.96a2.379 2.379 0 0 0-2.13-1.28 2.467 2.467 0 0 0-2.36 2.76zm9.86 1.66l3.47-5.21h1.18l-2.17 3.19 2.59 3.91h-1.22l-2.03-3.04-2.01 3.04h-.85v-10.8h1.04v8.91zm13.17-1.72v.43h-5.5a2.308 2.308 0 0 0 2.5 2.41 2.6 2.6 0 0 0 2.15-1l.7.56a3.645 3.645 0 1 1-3.04-6.03c2.07 0 3.19 1.61 3.19 3.63zm-5.5-.44h4.48a2.139 2.139 0 0 0-2.17-2.29 2.25 2.25 0 0 0-2.31 2.29zm16.75-.44v4.49h-1.08v-4.47l-3.88-5.96h1.27l3.15 4.86 3.16-4.86h1.28zm11.43.96a3.582 3.582 0 1 1-3.59-3.71 3.521 3.521 0 0 1 3.59 3.71zm-6.13 0a2.55 2.55 0 1 0 2.54-2.78 2.558 2.558 0 0 0-2.54 2.78zm14.63 3.53h-.95l-.03-.94a2.946 2.946 0 0 1-2.38 1.08c-1.61 0-2.53-1.19-2.53-2.95v-4.29h1.04v4.25a1.768 1.768 0 0 0 1.71 2.01 2.455 2.455 0 0 0 2.1-1.23v-5.03h1.04v7.1zm6.38-6.21h-.1a2.35 2.35 0 0 0-2 1.27v4.94h-1.02v-7.1h.93l.06 1.01a2.435 2.435 0 0 1 2.13-1.15v1.03zm13.2-3.29l-.53.92a4.579 4.579 0 0 0-2.81-1.05c-1.25 0-2.23.58-2.23 1.89 0 1.09.62 1.51 2.5 1.92 2.45.54 3.43 1.32 3.43 2.92 0 1.84-1.41 3.09-3.6 3.09a5.436 5.436 0 0 1-3.69-1.31l.61-.9a4.583 4.583 0 0 0 3.11 1.21c1.41 0 2.49-.69 2.49-2 0-1.07-.8-1.61-2.67-2.01-2.45-.54-3.26-1.29-3.26-2.87 0-1.81 1.36-2.93 3.32-2.93a5.453 5.453 0 0 1 3.33 1.12zm9.7 5.95c0 2.14-1.34 3.69-3.29 3.69a2.919 2.919 0 0 1-2.36-1.01V163h-1.03v-10.37h.94l.04.95a2.912 2.912 0 0 1 2.41-1.09c1.95 0 3.29 1.56 3.29 3.69zm-5.65-1.48v2.96a2.474 2.474 0 0 0 2.19 1.28 2.782 2.782 0 0 0 0-5.52 2.474 2.474 0 0 0-2.19 1.28zm13.52-1.14l.03-.93h.95v7.1h-.95l-.03-.95a2.8 2.8 0 0 1-2.35 1.09c-1.93 0-3.23-1.55-3.23-3.69s1.3-3.69 3.23-3.69a2.845 2.845 0 0 1 2.35 1.07zm-4.55 2.62a2.462 2.462 0 0 0 2.36 2.76 2.4 2.4 0 0 0 2.14-1.28v-2.96a2.4 2.4 0 0 0-2.14-1.28 2.473 2.473 0 0 0-2.36 2.76zm14.54-2.17l-.72.56a2.436 2.436 0 0 0-2.07-1.16c-1.59 0-2.45 1.19-2.45 2.77a2.475 2.475 0 0 0 4.56 1.6l.74.57a3.259 3.259 0 0 1-2.82 1.52 3.695 3.695 0 0 1-.03-7.38 3.172 3.172 0 0 1 2.79 1.52zm8.57 2.11v.43h-5.5a2.3 2.3 0 0 0 2.49 2.41 2.616 2.616 0 0 0 2.16-1l.69.56a3.642 3.642 0 1 1-3.04-6.03c2.08 0 3.2 1.61 3.2 3.63zm-5.5-.44h4.48a2.141 2.141 0 0 0-2.18-2.29 2.242 2.242 0 0 0-2.3 2.29zm11.58-5.74h-1.55v3.71h-.66v-3.71h-1.53v-.63h3.74v.63zm5.07 3.71h-.65v-2.44l-1.54 2.47h-.04l-1.53-2.47v2.44h-.66v-4.43h.02l2.19 3.35 2.18-3.35h.03v4.43zm-22.57-47.99v7.06H23.19v-7.06h-4.68v11.75h110.04v-11.75h-4.69zM23.19 11.74V4.69h100.67v7.05h4.69V0H18.51v11.74h4.68zM52.4 46.98c0 7.03-4.98 12.14-11.71 12.14-6.8 0-11.68-5.11-11.68-12.14 0-7 4.88-12.17 11.68-12.17 6.73 0 11.71 5.17 11.71 12.17m-20.96 0c0 5.72 3.86 9.87 9.25 9.87s9.25-4.15 9.25-9.87-3.86-9.9-9.25-9.9-9.25 4.18-9.25 9.9m58.54 11.73h-2.39V35.22h2.39v23.49zm-14.22 0h2.87l-6.1-9.68a6.584 6.584 0 0 0 5.01-6.68c0-4.6-3.47-7.13-8.26-7.13h-7.02v23.49h2.42V37.4h4.44c3.61 0 5.97 1.69 5.97 4.95s-2.33 4.95-5.97 4.95h-.51l3.36 5.38zm34.73-23.49H110L99.69 58.71h2.58l2.36-5.5h11.23l2.36 5.5h2.59zm4.45 15.82h-9.38l4.69-10.83 3.6 8.31zm-1.09-2.52l1.09 2.52zm-3.6-8.31l-4.69 10.83zm35.91-4.99h-2.43v17.74l-14.71-17.74h-.47v23.49h2.39V40.94l14.75 17.77h.47V35.22zM18.17 54.15a9.035 9.035 0 0 1-6.49 2.7c-.24 0-.46-.01-.69-.02a8.725 8.725 0 0 1-6.48-3.38 10.534 10.534 0 0 1-2.09-6.48v-.02a10.445 10.445 0 0 1 2.08-6.48 8.769 8.769 0 0 1 6.49-3.37c.23-.01.45-.02.69-.02a9.044 9.044 0 0 1 6.5 2.68c.11.12.22.23.33.35l1.53-1.82c-.07-.07-.13-.13-.2-.19a10.986 10.986 0 0 0-8.16-3.29c-.23 0-.46.01-.69.02a11.224 11.224 0 0 0-8.18 3.95A12.516 12.516 0 0 0 0 46.95v.02a12.562 12.562 0 0 0 2.82 8.17 11.211 11.211 0 0 0 8.17 3.96c.23.01.46.02.69.02a11.073 11.073 0 0 0 8.15-3.3.121.121 0 0 1 .05-.05l-1.57-1.76a1.848 1.848 0 0 1-.14.14M152.2 37.54a.8.8 0 0 1 .96.77.794.794 0 0 1-.96.77h-.74v-1.54h.74zm-1.39-.6v4.35h.65v-1.6h.8l1 1.6h.75l-1.07-1.72a1.3 1.3 0 0 0 .87-1.27 1.392 1.392 0 0 0-1.56-1.36h-1.44zm1.44-1.1a3.3 3.3 0 1 1-3.1 3.29 3.109 3.109 0 0 1 3.1-3.29m0-.62a3.908 3.908 0 1 0 3.75 3.91 3.717 3.717 0 0 0-3.75-3.91" fill="#c8102e" fill-rule="evenodd"/></svg>