<?xml version="1.0" standalone="no"?>
<!DOCTYPE svg PUBLIC "-//W3C//DTD SVG 20010904//EN"
 "http://www.w3.org/TR/2001/REC-SVG-20010904/DTD/svg10.dtd">
<svg version="1.0" xmlns="http://www.w3.org/2000/svg"
 width="2000.000000pt" height="502.000000pt" viewBox="0 0 2000.000000 502.000000"
 preserveAspectRatio="xMidYMid meet">

<g transform="translate(0.000000,502.000000) scale(0.100000,-0.100000)"
fill="#000000" stroke="none">
<path d="M1015 4999 c-210 -27 -408 -112 -579 -250 -185 -148 -326 -365 -393
-604 l-28 -100 -3 -1495 c-2 -1018 1 -1517 8 -1565 73 -481 463 -876 949 -960
126 -22 3871 -22 4007 0 419 68 773 375 905 784 58 182 59 196 59 1229 l0 942
-1530 0 -1530 0 0 -515 0 -515 825 0 825 0 0 -255 c0 -193 -3 -264 -14 -288
-17 -43 -67 -84 -116 -97 -26 -7 -496 -9 -1452 -8 l-1413 3 -37 23 c-20 13
-47 40 -60 60 l-23 37 -3 1060 c-2 735 0 1071 8 1097 13 45 52 93 94 116 29
16 172 17 2169 20 l2137 2 0 645 0 645 -2367 -1 c-1304 -1 -2399 -6 -2438 -10z"/>
<path d="M6308 4365 l-3 -645 1170 -2 1170 -3 3 -1853 2 -1852 705 0 705 0 2
1852 3 1853 1303 3 c797 1 1302 6 1300 11 -2 5 -167 296 -368 645 l-365 635
-2812 1 -2813 0 -2 -645z"/>
<path d="M12454 4983 c8 -16 655 -1139 1438 -2498 l1424 -2470 899 -2 900 -3
346 603 c191 331 670 1162 1064 1847 1286 2231 1465 2542 1465 2546 0 2 -348
4 -772 4 l-773 0 -309 -538 c-171 -295 -459 -796 -641 -1112 -594 -1030 -1132
-1964 -1156 -2008 l-24 -42 -100 2 -99 3 -161 280 c-89 154 -229 397 -311 540
-83 143 -489 848 -904 1568 l-753 1307 -774 0 -774 0 15 -27z"/>
</g>
</svg>
